<?xml version="1.0" encoding="UTF-8" standalone="no"?>
<!-- Created with Inkscape (http://www.inkscape.org/) -->

<svg
   width="1202.5616"
   height="360.24405"
   viewBox="0 0 1202.5616 360.24405"
   version="1.1"
   id="svg1"
   xml:space="preserve"
   inkscape:version="1.3 (0e150ed6c4, 2023-07-21)"
   sodipodi:docname="logo-darkmode.svg"
   inkscape:export-filename="Pictures\Crescent\Crescent.svg"
   inkscape:export-xdpi="6"
   inkscape:export-ydpi="6"
   xmlns:inkscape="http://www.inkscape.org/namespaces/inkscape"
   xmlns:sodipodi="http://sodipodi.sourceforge.net/DTD/sodipodi-0.dtd"
   xmlns="http://www.w3.org/2000/svg"
   xmlns:svg="http://www.w3.org/2000/svg"><sodipodi:namedview
     id="namedview1"
     pagecolor="#ffffff"
     bordercolor="#000000"
     borderopacity="0.25"
     inkscape:showpageshadow="2"
     inkscape:pageopacity="0.0"
     inkscape:pagecheckerboard="0"
     inkscape:deskcolor="#d1d1d1"
     inkscape:document-units="px"
     showgrid="true"
     inkscape:zoom="0.5"
     inkscape:cx="456"
     inkscape:cy="234"
     inkscape:window-width="1468"
     inkscape:window-height="1040"
     inkscape:window-x="133"
     inkscape:window-y="566"
     inkscape:window-maximized="0"
     inkscape:current-layer="layer5"><inkscape:grid
       id="grid2"
       units="px"
       originx="156"
       originy="180.24406"
       spacingx="2"
       spacingy="2"
       empcolor="#e50000"
       empopacity="0.30196078"
       color="#0099e5"
       opacity="0.14901961"
       empspacing="3"
       dotted="true"
       gridanglex="30"
       gridanglez="30"
       visible="true"
       enabled="false" /></sodipodi:namedview><defs
     id="defs1" /><g
     inkscape:groupmode="layer"
     id="layer6"
     inkscape:label="Stars"
     style="display:inline"
     transform="translate(-100,-75.755936)"><g
       inkscape:groupmode="layer"
       id="layer5"
       inkscape:label="Background"
       style="display:inline"
       transform="matrix(1.0155442,0,0,1.0201778,-50.078055,-22.751851)"><path
         sodipodi:type="star"
         style="display:inline;fill:#f9f9f9;stroke-width:0.982455"
         id="path1"
         inkscape:flatsided="false"
         sodipodi:sides="4"
         sodipodi:cx="1302.5616"
         sodipodi:cy="180"
         sodipodi:r1="15.470613"
         sodipodi:r2="3.7129471"
         sodipodi:arg1="0"
         sodipodi:arg2="0.78539816"
         inkscape:rounded="0.05"
         inkscape:randomized="0"
         d="m 1318.0323,180 c 0,0.65554 -12.3817,2.16192 -12.8452,2.62545 -0.4635,0.46353 -1.9699,12.84516 -2.6255,12.84516 -0.6555,0 -2.1619,-12.38163 -2.6254,-12.84516 -0.4635,-0.46353 -12.8452,-1.96991 -12.8452,-2.62545 0,-0.65554 12.3817,-2.16192 12.8452,-2.62545 0.4635,-0.46353 1.9699,-12.84516 2.6254,-12.84516 0.6556,0 2.162,12.38163 2.6255,12.84516 0.4635,0.46353 12.8452,1.96991 12.8452,2.62545 z"
         transform="matrix(1.5686772,0,0,1.5615524,-764.18735,82.444672)"
         inkscape:transform-center-x="1.58419e-05"
         inkscape:transform-center-y="1.5506329e-05"
         inkscape:export-filename="CrescentBanner1-2.svg"
         inkscape:export-xdpi="34.188248"
         inkscape:export-ydpi="34.188248" /><path
         sodipodi:type="star"
         style="display:inline;fill:#f9f9f9;stroke-width:0.982455"
         id="path1-1"
         inkscape:flatsided="false"
         sodipodi:sides="4"
         sodipodi:cx="1302.5616"
         sodipodi:cy="180"
         sodipodi:r1="15.470613"
         sodipodi:r2="3.7129471"
         sodipodi:arg1="0"
         sodipodi:arg2="0.78539816"
         inkscape:rounded="0.05"
         inkscape:randomized="0"
         d="m 1318.0323,180 c 0,0.65554 -12.3817,2.16192 -12.8452,2.62545 -0.4635,0.46353 -1.9699,12.84516 -2.6255,12.84516 -0.6555,0 -2.1619,-12.38163 -2.6254,-12.84516 -0.4635,-0.46353 -12.8452,-1.96991 -12.8452,-2.62545 0,-0.65554 12.3817,-2.16192 12.8452,-2.62545 0.4635,-0.46353 1.9699,-12.84516 2.6254,-12.84516 0.6556,0 2.162,12.38163 2.6255,12.84516 0.4635,0.46353 12.8452,1.96991 12.8452,2.62545 z"
         transform="matrix(1.153739,0,0,1.1484988,-265.82221,163.18451)"
         inkscape:transform-center-x="-3.3099442e-05"
         inkscape:transform-center-y="1.905601e-05" /><path
         sodipodi:type="star"
         style="display:inline;fill:#f9f9f9;stroke-width:0.982455"
         id="path1-1-4"
         inkscape:flatsided="false"
         sodipodi:sides="4"
         sodipodi:cx="1302.5616"
         sodipodi:cy="180"
         sodipodi:r1="15.470613"
         sodipodi:r2="3.7129471"
         sodipodi:arg1="0"
         sodipodi:arg2="0.78539816"
         inkscape:rounded="0.05"
         inkscape:randomized="0"
         d="m 1318.0323,180 c 0,0.65554 -12.3817,2.16192 -12.8452,2.62545 -0.4635,0.46353 -1.9699,12.84516 -2.6255,12.84516 -0.6555,0 -2.1619,-12.38163 -2.6254,-12.84516 -0.4635,-0.46353 -12.8452,-1.96991 -12.8452,-2.62545 0,-0.65554 12.3817,-2.16192 12.8452,-2.62545 0.4635,-0.46353 1.9699,-12.84516 2.6254,-12.84516 0.6556,0 2.162,12.38163 2.6255,12.84516 0.4635,0.46353 12.8452,1.96991 12.8452,2.62545 z"
         transform="matrix(1.153739,0,0,1.1484988,-819.36186,-19.508158)"
         inkscape:transform-center-x="-3.3099442e-05"
         inkscape:transform-center-y="1.905601e-05" /><path
         sodipodi:type="star"
         style="display:inline;fill:#f9f9f9;stroke-width:0.982455"
         id="path1-1-4-4"
         inkscape:flatsided="false"
         sodipodi:sides="4"
         sodipodi:cx="1302.5616"
         sodipodi:cy="180"
         sodipodi:r1="15.470613"
         sodipodi:r2="3.7129471"
         sodipodi:arg1="0"
         sodipodi:arg2="0.78539816"
         inkscape:rounded="0.05"
         inkscape:randomized="0"
         d="m 1318.0323,180 c 0,0.65554 -12.3817,2.16192 -12.8452,2.62545 -0.4635,0.46353 -1.9699,12.84516 -2.6255,12.84516 -0.6555,0 -2.1619,-12.38163 -2.6254,-12.84516 -0.4635,-0.46353 -12.8452,-1.96991 -12.8452,-2.62545 0,-0.65554 12.3817,-2.16192 12.8452,-2.62545 0.4635,-0.46353 1.9699,-12.84516 2.6254,-12.84516 0.6556,0 2.162,12.38163 2.6255,12.84516 0.4635,0.46353 12.8452,1.96991 12.8452,2.62545 z"
         transform="matrix(1.7306085,0,0,1.7227482,-1524.1686,-140.64103)"
         inkscape:transform-center-x="-1.9768037e-05"
         inkscape:transform-center-y="2.8548503e-05" /><ellipse
         style="fill:#3e3748;fill-opacity:1;stroke-width:1.06935"
         id="path6"
         cx="324.7413"
         cy="273.11877"
         rx="176.96016"
         ry="176.55934"
         inkscape:export-filename="PNG\2_128x.png"
         inkscape:export-xdpi="34.188248"
         inkscape:export-ydpi="34.188248" /><path
         d="m 558.74947,272.23209 q 0,-12.26101 4.14988,-23.95613 4.33851,-11.88376 12.44964,-21.50394 8.11114,-9.80881 19.99489,-15.46774 11.88375,-5.84756 26.97423,-5.84756 17.91995,0 30.55822,8.29976 12.82691,8.11114 18.8631,20.93804 l -10.3747,6.41346 q -4.33851,-8.86566 -10.9406,-13.9587 -6.60208,-5.28166 -14.14732,-7.54524 -7.35661,-2.26357 -14.71322,-2.26357 -12.07238,0 -21.3153,4.90441 -9.24292,4.71577 -15.65638,12.82691 -6.22482,7.9225 -9.43155,17.91994 -3.20672,9.80881 -3.20672,19.99489 0,11.12923 3.77262,21.3153 3.77262,10.18607 10.56333,18.10858 6.79072,7.73387 15.84501,12.44964 9.24292,4.52714 19.99488,4.52714 7.54524,0 15.46774,-2.64083 7.92251,-2.64083 14.71322,-8.11113 6.97935,-5.4703 11.12923,-14.14733 l 10.9406,5.65893 q -4.14988,9.99745 -12.82691,16.97679 -8.67703,6.97935 -19.42899,10.56334 -10.56334,3.58399 -20.74941,3.58399 -13.77006,0 -25.27656,-5.84756 -11.50649,-6.0362 -19.99488,-15.84501 -8.29976,-9.99744 -12.82691,-22.25845 -4.52714,-12.44965 -4.52714,-25.08793 z m 184.6699,-19.05173 q -12.82691,0.37726 -22.63572,7.16798 -9.62018,6.79072 -13.58144,18.67447 v 61.11644 h -12.8269 V 241.8625 h 12.07238 v 23.57888 q 5.09304,-10.37471 13.3928,-16.78816 8.4884,-6.41346 17.91995,-7.16798 1.88631,-0.18863 3.20672,-0.18863 1.50905,0 2.45221,0.18863 z m 56.56681,88.8452 q -10.56334,0 -19.61762,-3.96125 -9.05429,-4.14988 -15.65638,-11.12923 -6.60208,-7.16798 -10.3747,-16.41089 -3.58399,-9.24292 -3.58399,-19.80626 0,-13.77006 6.22482,-25.27655 6.41346,-11.50649 17.54269,-18.29721 11.12922,-6.97935 25.27655,-6.97935 14.52459,0 25.27655,6.97935 10.9406,6.97935 17.16542,18.48584 6.22483,11.31786 6.22483,24.89929 0,1.50905 0,3.0181 0,1.32041 -0.18863,2.07494 h -84.12943 q 0.94316,10.56333 5.84756,18.8631 5.09304,8.11113 13.01554,13.01553 8.11113,4.71578 17.54268,4.71578 9.62018,0 18.10858,-4.90441 8.67702,-4.9044 12.07238,-12.8269 l 11.12923,3.01809 q -3.01809,6.97935 -9.24292,12.63828 -6.22482,5.65893 -14.71322,8.86566 -8.29976,3.01809 -17.91994,3.01809 z m -36.21715,-55.64614 h 72.62293 q -0.75452,-10.75197 -5.84756,-18.8631 -4.9044,-8.11113 -13.01554,-12.63828 -7.9225,-4.71577 -17.54268,-4.71577 -9.62018,0 -17.54268,4.71577 -7.9225,4.52715 -13.01554,12.82691 -4.90441,8.11113 -5.65893,18.67447 z m 136.75746,55.64614 q -12.07239,0 -22.44709,-3.96125 -10.37471,-3.96125 -17.91995,-12.07238 l 5.28167,-9.05429 q 8.29976,7.73387 16.59953,11.31786 8.48839,3.39536 17.91994,3.39536 11.50649,0 18.67447,-4.52715 7.16798,-4.71577 7.16798,-13.3928 0,-5.84756 -3.58399,-8.86565 -3.39536,-3.20673 -9.99744,-5.09304 -6.41346,-2.07494 -15.46774,-4.33851 -10.18608,-2.82947 -17.16542,-5.84757 -6.79072,-3.20672 -10.37471,-7.9225 -3.39536,-4.9044 -3.39536,-12.63827 0,-9.62018 4.71578,-15.84501 4.9044,-6.41345 13.20417,-9.62018 8.48839,-3.39536 18.8631,-3.39536 11.31786,0 19.99488,3.58399 8.67703,3.58399 14.14733,9.99745 l -6.22483,8.67702 q -5.28166,-6.03619 -12.63827,-8.86566 -7.16798,-3.01809 -16.03364,-3.01809 -6.03619,0 -11.50649,1.69768 -5.4703,1.50905 -9.05429,5.28167 -3.39535,3.58398 -3.39535,9.99744 0,5.28167 2.64083,8.29976 2.64083,2.82947 7.9225,4.90441 5.28167,1.88631 13.01554,4.14988 11.12923,3.0181 19.42899,6.22482 8.29977,3.0181 12.82691,7.9225 4.52715,4.90441 4.52715,13.77007 0,13.77006 -10.37471,21.50393 -10.3747,7.73387 -27.35149,7.73387 z m 101.48341,0 q -10.75194,0 -19.80623,-3.96125 -8.86566,-4.14988 -15.65637,-11.31786 -6.60209,-7.16798 -10.37471,-16.4109 -3.58399,-9.24291 -3.58399,-19.61762 0,-13.95869 6.22483,-25.46518 6.22482,-11.50649 17.35405,-18.29721 11.12923,-6.79072 25.65382,-6.79072 13.7701,0 24.3334,6.41346 10.5633,6.22482 15.6564,16.97679 l -12.4497,3.96125 q -4.1499,-7.54524 -11.6951,-11.69512 -7.3566,-4.33852 -16.4109,-4.33852 -9.80881,0 -17.91994,5.09304 -8.11114,5.09304 -13.01554,13.95869 -4.71578,8.86566 -4.71578,20.18352 0,11.12923 4.90441,20.18352 4.9044,9.05429 13.01554,14.52458 8.11113,5.28167 17.91991,5.28167 6.4135,0 12.261,-2.26357 6.0362,-2.26357 10.3748,-6.03619 4.5271,-3.96125 6.0361,-8.4884 l 12.6383,3.77262 q -2.6408,6.97935 -8.8656,12.63828 -6.0362,5.4703 -14.336,8.67703 -8.1111,3.01809 -17.5427,3.01809 z m 102.4268,0 q -10.5634,0 -19.6176,-3.96125 -9.0543,-4.14988 -15.6564,-11.12923 -6.6021,-7.16798 -10.3747,-16.41089 -3.584,-9.24292 -3.584,-19.80626 0,-13.77006 6.2248,-25.27655 6.4135,-11.50649 17.5427,-18.29721 11.1292,-6.97935 25.2765,-6.97935 14.5246,0 25.2766,6.97935 10.9406,6.97935 17.1654,18.48584 6.2248,11.31786 6.2248,24.89929 0,1.50905 0,3.0181 0,1.32041 -0.1886,2.07494 h -84.1294 q 0.9431,10.56333 5.8476,18.8631 5.093,8.11113 13.0155,13.01553 8.1111,4.71578 17.5427,4.71578 9.6202,0 18.1085,-4.90441 8.6771,-4.9044 12.0724,-12.8269 l 11.1293,3.01809 q -3.0181,6.97935 -9.243,12.63828 -6.2248,5.65893 -14.7132,8.86566 -8.2997,3.01809 -17.9199,3.01809 z m -36.2172,-55.64614 h 72.623 q -0.7546,-10.75197 -5.8476,-18.8631 -4.9044,-8.11113 -13.0155,-12.63828 -7.9225,-4.71577 -17.5427,-4.71577 -9.6202,0 -17.5427,4.71577 -7.9225,4.52715 -13.0155,12.82691 -4.9044,8.11113 -5.659,18.67447 z m 187.1219,53.75983 h -12.8269 v -54.89162 q 0,-17.35405 -5.093,-25.27655 -5.093,-8.11113 -16.0336,-8.11113 -7.5453,0 -14.9019,3.77262 -7.3566,3.58398 -13.0155,9.99744 -5.4703,6.22482 -7.9225,14.33595 v 60.17329 h -12.8269 V 241.8625 h 11.6951 v 22.25846 q 3.9612,-7.16798 10.3747,-12.44965 6.4134,-5.47029 14.5246,-8.48839 8.1111,-3.0181 16.7881,-3.0181 8.1112,0 13.7701,3.0181 5.6589,3.0181 9.0543,8.67703 3.3953,5.47029 4.9044,13.3928 1.509,7.73387 1.509,17.35405 z m 73.5663,-4.71577 q -1.509,0.56589 -4.7157,2.07494 -3.2068,1.50905 -7.7339,2.64083 -4.5272,1.13179 -9.8088,1.13179 -5.4703,0 -10.3747,-2.07494 -4.7158,-2.07494 -7.5453,-6.22483 -2.8294,-4.33851 -2.8294,-10.56333 v -70.35936 h -13.5815 V 241.8625 h 13.5815 v -33.19905 h 12.8269 v 33.19905 h 22.6357 v 10.18608 h -22.6357 v 66.77537 q 0.3772,5.28167 3.7726,7.9225 3.584,2.64083 8.1111,2.64083 5.2817,0 9.6202,-1.69767 4.3385,-1.88631 5.2817,-2.64084 z"
         id="text1"
         style="font-size:188.631px;font-family:Raleway;-inkscape-font-specification:Raleway;fill:#f9f9f9;stroke-width:0.982455"
         transform="scale(1.0022787,0.99772646)"
         aria-label="Crescent" /></g><path
       sodipodi:type="star"
       style="display:inline;fill:#5d536c"
       id="First"
       inkscape:flatsided="false"
       sodipodi:sides="4"
       sodipodi:cx="388"
       sodipodi:cy="208"
       sodipodi:r1="90.199776"
       sodipodi:r2="21.647945"
       sodipodi:arg1="0"
       sodipodi:arg2="0.78539816"
       inkscape:rounded="0.05"
       inkscape:randomized="0"
       d="m 478.19978,208 c 0,3.82204 -72.18978,12.60482 -74.89237,15.30741 -2.70259,2.70259 -11.48537,74.89237 -15.30741,74.89237 -3.82204,0 -12.60482,-72.18978 -15.30741,-74.89237 C 369.99,220.60482 297.80022,211.82204 297.80022,208 c 0,-3.82204 72.18978,-12.60482 74.89237,-15.30741 2.70259,-2.70259 11.48537,-74.89237 15.30741,-74.89237 3.82204,0 12.60482,72.18978 15.30741,74.89237 2.70259,2.70259 74.89237,11.48537 74.89237,15.30741 z"
       transform="matrix(0.40969556,0,0,0.40969556,120.74921,268.01294)" /><path
       sodipodi:type="star"
       style="fill:#5d536c"
       id="Second"
       inkscape:flatsided="false"
       sodipodi:sides="4"
       sodipodi:cx="388"
       sodipodi:cy="208"
       sodipodi:r1="90.199776"
       sodipodi:r2="21.647945"
       sodipodi:arg1="0"
       sodipodi:arg2="0.78539816"
       inkscape:rounded="0.05"
       inkscape:randomized="0"
       d="m 478.19978,208 c 0,3.82204 -72.18978,12.60482 -74.89237,15.30741 -2.70259,2.70259 -11.48537,74.89237 -15.30741,74.89237 -3.82204,0 -12.60482,-72.18978 -15.30741,-74.89237 C 369.99,220.60482 297.80022,211.82204 297.80022,208 c 0,-3.82204 72.18978,-12.60482 74.89237,-15.30741 2.70259,-2.70259 11.48537,-74.89237 15.30741,-74.89237 3.82204,0 12.60482,72.18978 15.30741,74.89237 2.70259,2.70259 74.89237,11.48537 74.89237,15.30741 z"
       transform="matrix(0.33693475,0,0,0.33693475,220.0732,263.30762)" /><path
       sodipodi:type="star"
       style="fill:#5d536c"
       id="Third"
       inkscape:flatsided="false"
       sodipodi:sides="4"
       sodipodi:cx="388"
       sodipodi:cy="208"
       sodipodi:r1="90.199776"
       sodipodi:r2="21.647945"
       sodipodi:arg1="0"
       sodipodi:arg2="0.78539816"
       inkscape:rounded="0.05"
       inkscape:randomized="0"
       d="m 478.19978,208 c 0,3.82204 -72.18978,12.60482 -74.89237,15.30741 -2.70259,2.70259 -11.48537,74.89237 -15.30741,74.89237 -3.82204,0 -12.60482,-72.18978 -15.30741,-74.89237 C 369.99,220.60482 297.80022,211.82204 297.80022,208 c 0,-3.82204 72.18978,-12.60482 74.89237,-15.30741 2.70259,-2.70259 11.48537,-74.89237 15.30741,-74.89237 3.82204,0 12.60482,72.18978 15.30741,74.89237 2.70259,2.70259 74.89237,11.48537 74.89237,15.30741 z"
       transform="matrix(0.2581384,0,0,0.2581384,308.06857,262.58238)" /></g><g
     inkscape:groupmode="layer"
     id="layer4"
     inkscape:label="Crescent"
     style="display:inline"
     transform="translate(-100,-75.755936)"><path
       d="m 411.48633,378.42383 a 180,180 0 0 1 -20.71875,15.91211 180,180 0 0 1 -22.80469,12.74609 180,180 0 0 1 -24.41016,9.31055 180,180 0 0 1 -25.5,5.67969 A 180,180 0 0 1 292,424 180,180 0 0 1 266.38281,422.16797 180,180 0 0 1 241.28906,416.70898 180,180 0 0 1 217.22461,407.73437 180,180 0 0 1 194.68555,395.42578 180,180 0 0 1 174.125,380.03516 180,180 0 0 1 155.96484,361.875 180,180 0 0 1 140.57422,341.31445 180,180 0 0 1 128.26562,318.77539 180,180 0 0 1 119.29102,294.71094 180,180 0 0 1 113.83203,269.61719 180,180 0 0 1 112,244 a 180,180 0 0 1 1.89648,-25.89844 180,180 0 0 1 5.60352,-25.35547 180,180 0 0 1 9.19336,-24.28711 180,180 0 0 1 12.5918,-22.70898 180,180 0 0 1 15.72851,-20.66211 180,180 0 0 1 5.58399,-5.47656 180,180 0 0 0 -0.47266,0.35351 180,180 0 0 0 -18.16016,18.16016 180,180 0 0 0 -15.39062,20.56055 180,180 0 0 0 -12.30859,22.53906 180,180 0 0 0 -8.97461,24.06445 180,180 0 0 0 -5.45899,25.09375 A 180,180 0 0 0 100,256 a 180,180 0 0 0 1.83203,25.61719 180,180 0 0 0 5.45899,25.09375 180,180 0 0 0 8.97461,24.06445 180,180 0 0 0 12.30859,22.53906 180,180 0 0 0 15.39062,20.56055 180,180 0 0 0 18.16016,18.16016 180,180 0 0 0 20.56055,15.39062 180,180 0 0 0 22.53906,12.30859 180,180 0 0 0 24.06445,8.97461 180,180 0 0 0 25.09375,5.45899 A 180,180 0 0 0 280,436 a 180,180 0 0 0 25.61719,-1.83203 180,180 0 0 0 25.09375,-5.45899 180,180 0 0 0 24.06445,-8.97461 180,180 0 0 0 22.53906,-12.30859 180,180 0 0 0 20.56055,-15.39062 180,180 0 0 0 13.61133,-13.61133 z"
       style="fill:#8a6f91"
       id="Highlight" /><path
       d="m 411.48633,378.42383 a 180,180 0 0 1 -22.1836,11.85937 180,180 0 0 1 -23.61914,8.65039 180,180 0 0 1 -24.59375,5.27344 A 180,180 0 0 1 316,406 180,180 0 0 1 290.38281,404.16797 180,180 0 0 1 265.28906,398.70898 180,180 0 0 1 241.22461,389.73437 180,180 0 0 1 218.68555,377.42578 180,180 0 0 1 198.125,362.03516 180,180 0 0 1 179.96484,343.875 180,180 0 0 1 164.57422,323.31445 180,180 0 0 1 152.26562,300.77539 180,180 0 0 1 143.29102,276.71094 180,180 0 0 1 137.83203,251.61719 180,180 0 0 1 136,226 a 180,180 0 0 1 1.80469,-25.22852 180,180 0 0 1 5.32422,-24.72656 180,180 0 0 1 8.73632,-23.73633 180,180 0 0 1 11.97657,-22.27734 180,180 0 0 1 14.98242,-20.37695 180,180 0 0 1 6.24414,-6.38086 180,180 0 0 0 -2.38281,1.30078 180,180 0 0 0 -20.08789,15.03711 180,180 0 0 0 -5.58399,5.47656 A 180,180 0 0 0 141.28516,145.75 180,180 0 0 0 128.69336,168.45898 180,180 0 0 0 119.5,192.74609 180,180 0 0 0 113.89648,218.10156 180,180 0 0 0 112,244 a 180,180 0 0 0 1.83203,25.61719 180,180 0 0 0 5.45899,25.09375 180,180 0 0 0 8.9746,24.06445 180,180 0 0 0 12.3086,22.53906 180,180 0 0 0 15.39062,20.56055 180,180 0 0 0 18.16016,18.16016 180,180 0 0 0 20.56055,15.39062 180,180 0 0 0 22.53906,12.30859 180,180 0 0 0 24.06445,8.97461 180,180 0 0 0 25.09375,5.45899 A 180,180 0 0 0 292,424 a 180,180 0 0 0 26.05273,-1.92773 180,180 0 0 0 25.5,-5.67969 180,180 0 0 0 24.41016,-9.31055 180,180 0 0 0 22.80469,-12.74609 180,180 0 0 0 20.71875,-15.91211 z"
       style="fill:#5d536c"
       id="Moon" /></g></svg>
