<?xml version="1.0" encoding="UTF-8" standalone="no"?>
<!-- Created with Inkscape (http://www.inkscape.org/) -->

<svg
   width="783.91193"
   height="572.29028"
   viewBox="0 0 783.91193 572.29028"
   version="1.1"
   id="svg1"
   xml:space="preserve"
   inkscape:version="1.3 (0e150ed6c4, 2023-07-21)"
   sodipodi:docname="banner.svg"
   inkscape:export-filename="..\..\Downloads\Crescent.png"
   inkscape:export-xdpi="100"
   inkscape:export-ydpi="100"
   xmlns:inkscape="http://www.inkscape.org/namespaces/inkscape"
   xmlns:sodipodi="http://sodipodi.sourceforge.net/DTD/sodipodi-0.dtd"
   xmlns="http://www.w3.org/2000/svg"
   xmlns:svg="http://www.w3.org/2000/svg"><sodipodi:namedview
     id="namedview1"
     pagecolor="#ffffff"
     bordercolor="#000000"
     borderopacity="0.25"
     inkscape:showpageshadow="2"
     inkscape:pageopacity="0.0"
     inkscape:pagecheckerboard="0"
     inkscape:deskcolor="#d1d1d1"
     inkscape:document-units="px"
     showgrid="true"
     inkscape:zoom="1"
     inkscape:cx="330"
     inkscape:cy="530.5"
     inkscape:window-width="1920"
     inkscape:window-height="1017"
     inkscape:window-x="-8"
     inkscape:window-y="-8"
     inkscape:window-maximized="1"
     inkscape:current-layer="layer5"><inkscape:grid
       id="grid2"
       units="px"
       originx="368.2449"
       originy="180.24406"
       spacingx="2"
       spacingy="2"
       empcolor="#e50000"
       empopacity="0.30196078"
       color="#0099e5"
       opacity="0.14901961"
       empspacing="3"
       dotted="true"
       gridanglex="30"
       gridanglez="30"
       visible="true"
       enabled="false" /></sodipodi:namedview><defs
     id="defs1" /><g
     inkscape:groupmode="layer"
     id="layer6"
     inkscape:label="Stars"
     style="display:inline"
     transform="translate(112.2449,-75.755936)"><g
       inkscape:groupmode="layer"
       id="layer5"
       inkscape:label="Background"
       style="display:inline"
       transform="matrix(1.0155442,0,0,1.0201778,-50.078055,-22.751851)"><path
         sodipodi:type="star"
         style="display:inline;fill:#f9f9f9;stroke-width:0.982455"
         id="path1"
         inkscape:flatsided="false"
         sodipodi:sides="4"
         sodipodi:cx="1302.5616"
         sodipodi:cy="180"
         sodipodi:r1="15.470613"
         sodipodi:r2="3.7129471"
         sodipodi:arg1="0"
         sodipodi:arg2="0.78539816"
         inkscape:rounded="0.05"
         inkscape:randomized="0"
         d="m 1318.0323,180 c 0,0.65554 -12.3817,2.16192 -12.8452,2.62545 -0.4635,0.46353 -1.9699,12.84516 -2.6255,12.84516 -0.6555,0 -2.1619,-12.38163 -2.6254,-12.84516 -0.4635,-0.46353 -12.8452,-1.96991 -12.8452,-2.62545 0,-0.65554 12.3817,-2.16192 12.8452,-2.62545 0.4635,-0.46353 1.9699,-12.84516 2.6254,-12.84516 0.6556,0 2.162,12.38163 2.6255,12.84516 0.4635,0.46353 12.8452,1.96991 12.8452,2.62545 z"
         transform="matrix(1.5686772,0,0,1.5615524,-1385.4254,352.29294)"
         inkscape:transform-center-x="1.58419e-05"
         inkscape:transform-center-y="1.5506329e-05"
         inkscape:export-filename="CrescentBanner1-2.svg"
         inkscape:export-xdpi="34.188248"
         inkscape:export-ydpi="34.188248" /><path
         sodipodi:type="star"
         style="display:inline;fill:#f9f9f9;stroke-width:0.982455"
         id="path1-1"
         inkscape:flatsided="false"
         sodipodi:sides="4"
         sodipodi:cx="1302.5616"
         sodipodi:cy="180"
         sodipodi:r1="15.470613"
         sodipodi:r2="3.7129471"
         sodipodi:arg1="0"
         sodipodi:arg2="0.78539816"
         inkscape:rounded="0.05"
         inkscape:randomized="0"
         d="m 1318.0323,180 c 0,0.65554 -12.3817,2.16192 -12.8452,2.62545 -0.4635,0.46353 -1.9699,12.84516 -2.6255,12.84516 -0.6555,0 -2.1619,-12.38163 -2.6254,-12.84516 -0.4635,-0.46353 -12.8452,-1.96991 -12.8452,-2.62545 0,-0.65554 12.3817,-2.16192 12.8452,-2.62545 0.4635,-0.46353 1.9699,-12.84516 2.6254,-12.84516 0.6556,0 2.162,12.38163 2.6255,12.84516 0.4635,0.46353 12.8452,1.96991 12.8452,2.62545 z"
         transform="matrix(1.153739,0,0,1.1484988,-887.0602,433.03278)"
         inkscape:transform-center-x="-3.3099442e-05"
         inkscape:transform-center-y="1.905601e-05" /><path
         sodipodi:type="star"
         style="display:inline;fill:#f9f9f9;stroke-width:0.982455"
         id="path1-1-4"
         inkscape:flatsided="false"
         sodipodi:sides="4"
         sodipodi:cx="1302.5616"
         sodipodi:cy="180"
         sodipodi:r1="15.470613"
         sodipodi:r2="3.7129471"
         sodipodi:arg1="0"
         sodipodi:arg2="0.78539816"
         inkscape:rounded="0.05"
         inkscape:randomized="0"
         d="m 1318.0323,180 c 0,0.65554 -12.3817,2.16192 -12.8452,2.62545 -0.4635,0.46353 -1.9699,12.84516 -2.6255,12.84516 -0.6555,0 -2.1619,-12.38163 -2.6254,-12.84516 -0.4635,-0.46353 -12.8452,-1.96991 -12.8452,-2.62545 0,-0.65554 12.3817,-2.16192 12.8452,-2.62545 0.4635,-0.46353 1.9699,-12.84516 2.6254,-12.84516 0.6556,0 2.162,12.38163 2.6255,12.84516 0.4635,0.46353 12.8452,1.96991 12.8452,2.62545 z"
         transform="matrix(1.153739,0,0,1.1484988,-1440.5999,250.34011)"
         inkscape:transform-center-x="-3.3099442e-05"
         inkscape:transform-center-y="1.905601e-05" /><path
         sodipodi:type="star"
         style="display:inline;fill:#f9f9f9;stroke-width:0.982455"
         id="path1-1-4-4"
         inkscape:flatsided="false"
         sodipodi:sides="4"
         sodipodi:cx="1302.5616"
         sodipodi:cy="180"
         sodipodi:r1="15.470613"
         sodipodi:r2="3.7129471"
         sodipodi:arg1="0"
         sodipodi:arg2="0.78539816"
         inkscape:rounded="0.05"
         inkscape:randomized="0"
         d="m 1318.0323,180 c 0,0.65554 -12.3817,2.16192 -12.8452,2.62545 -0.4635,0.46353 -1.9699,12.84516 -2.6255,12.84516 -0.6555,0 -2.1619,-12.38163 -2.6254,-12.84516 -0.4635,-0.46353 -12.8452,-1.96991 -12.8452,-2.62545 0,-0.65554 12.3817,-2.16192 12.8452,-2.62545 0.4635,-0.46353 1.9699,-12.84516 2.6254,-12.84516 0.6556,0 2.162,12.38163 2.6255,12.84516 0.4635,0.46353 12.8452,1.96991 12.8452,2.62545 z"
         transform="matrix(1.7306085,0,0,1.7227482,-2145.4066,129.20724)"
         inkscape:transform-center-x="-1.9768037e-05"
         inkscape:transform-center-y="2.8548503e-05" /><ellipse
         style="fill:#3e3748;fill-opacity:1;stroke-width:1.06935"
         id="path6"
         cx="324.7413"
         cy="273.11877"
         rx="176.96016"
         ry="176.55934"
         inkscape:export-filename="PNG\2_128x.png"
         inkscape:export-xdpi="34.188248"
         inkscape:export-ydpi="34.188248" /><path
         d="m -61.215296,541.46143 q 0,-12.23313 4.159336,-23.90167 4.348396,-11.85674 12.478009,-21.45505 8.129622,-9.7865 20.040452,-15.43257 11.91083,-5.83426 27.0356966,-5.83426 17.9607844,0 30.6278534,8.28089 12.856138,8.0927 18.906083,20.89043 l -10.398341,6.39888 q -4.348396,-8.8455 -10.96553,-13.92696 -6.617124,-5.26965 -14.179558,-7.52809 -7.3733734,-2.25842 -14.7467474,-2.25842 -12.0998886,0 -21.3638706,4.89326 -9.263982,4.70505 -15.692057,12.79774 -6.239004,7.90449 -9.453041,17.8792 -3.214027,9.78651 -3.214027,19.94943 0,11.10393 3.781217,21.26684 3.781216,10.16291 10.5874,18.06741 6.806194,7.71629 15.881116,12.42134 9.2639816,4.51684 20.0404426,4.51684 7.562433,0 15.5029864,-2.63482 7.940563,-2.63483 14.746747,-8.09269 6.995254,-5.45786 11.15459,-14.11517 l 10.965531,5.64607 q -4.159337,9.97472 -12.856139,16.93819 -8.696802,6.96348 -19.473263,10.53933 -10.587411,3.57584 -20.7966924,3.57584 -13.8014366,0 -25.3341576,-5.83427 -11.53271,-6.02248 -20.040442,-15.80898 -8.318672,-9.97471 -12.856138,-22.20785 -4.537456,-12.42134 -4.537456,-25.03089 z M 123.87541,522.45301 q -12.85614,0.37641 -22.6873,7.15169 -9.642096,6.77528 -13.612386,18.63201 v 60.97749 h -12.85613 v -98.05331 h 12.09989 v 23.52527 q 5.10465,-10.35112 13.423316,-16.74999 8.50774,-6.39888 17.96078,-7.15169 1.89061,-0.1882 3.21403,-0.1882 1.51249,0 2.4578,0.1882 z m 56.69571,88.64321 q -10.58741,0 -19.66233,-3.95224 -9.07492,-4.14045 -15.69205,-11.10393 -6.61713,-7.15168 -10.39834,-16.37358 -3.59216,-9.2219 -3.59216,-19.76123 0,-13.73875 6.239,-25.21908 6.42808,-11.48033 17.58267,-18.25561 11.15458,-6.96348 25.33415,-6.96348 14.55768,0 25.33414,6.96348 10.96553,6.96348 17.20454,18.44381 6.23901,11.29213 6.23901,24.84268 0,1.50562 0,3.01124 0,1.31741 -0.18906,2.07022 h -84.32113 q 0.94531,10.53931 5.86088,18.82021 5.10465,8.09269 13.0452,12.98594 8.12961,4.70506 17.58266,4.70506 9.6421,0 18.14984,-4.89326 8.69679,-4.89325 12.09989,-12.79774 l 11.15459,3.01123 q -3.02497,6.96349 -9.26398,12.60955 -6.23901,5.64606 -14.74675,8.8455 -8.31867,3.01123 -17.96077,3.01123 z M 144.27144,555.5766 h 72.78841 q -0.75624,-10.72753 -5.86088,-18.82022 -4.91558,-8.09269 -13.0452,-12.60955 -7.94055,-4.70504 -17.58265,-4.70504 -9.64211,0 -17.58266,4.70504 -7.94055,4.51686 -13.0452,12.79775 -4.91558,8.09269 -5.67182,18.63202 z m 137.06909,55.51962 q -12.0999,0 -22.49824,-3.95224 -10.39835,-3.95225 -17.96079,-12.04494 l 5.29371,-9.0337 q 8.31867,7.71629 16.63735,11.29213 8.50774,3.38764 17.96078,3.38764 11.53271,0 18.71702,-4.51686 7.18431,-4.70505 7.18431,-13.36235 0,-5.83427 -3.59215,-8.84549 -3.4031,-3.19944 -10.02022,-5.08146 -6.42808,-2.07023 -15.50299,-4.32865 -10.20929,-2.82304 -17.20453,-5.83428 -6.8062,-3.19942 -10.39836,-7.90448 -3.40309,-4.89325 -3.40309,-12.60954 0,-9.59831 4.72652,-15.80899 4.91558,-6.39886 13.23426,-9.5983 8.50773,-3.38764 18.90609,-3.38764 11.34365,0 20.04044,3.57584 8.6968,3.57584 14.17957,9.97472 l -6.23902,8.65729 q -5.29369,-6.02247 -12.66707,-8.8455 -7.18431,-3.01123 -16.07017,-3.01123 -6.04995,0 -11.53271,1.69382 -5.48277,1.50562 -9.07493,5.26966 -3.40308,3.57583 -3.40308,9.97471 0,5.26966 2.64684,8.28089 2.64685,2.82304 7.94056,4.89326 5.2937,1.88202 13.0452,4.14045 11.15459,3.01123 19.47326,6.21066 8.31868,3.01124 12.85614,7.90449 4.53746,4.89326 4.53746,13.73876 0,13.73876 -10.39835,21.45504 -10.39834,7.71629 -27.41381,7.71629 z m 101.71466,0 q -10.77644,0 -19.85137,-3.95224 -8.88586,-4.14045 -15.69204,-11.29213 -6.61714,-7.15168 -10.39835,-16.37359 -3.59216,-9.2219 -3.59216,-19.57302 0,-13.92695 6.23902,-25.40728 6.239,-11.48033 17.39359,-18.25561 11.15459,-6.77528 25.71228,-6.77528 13.80148,0 24.38885,6.39887 10.58737,6.21067 15.69207,16.9382 l -12.47807,3.95224 q -4.15935,-7.52808 -11.72175,-11.66853 -7.37336,-4.32866 -16.44829,-4.32866 -9.83116,0 -17.96078,5.08146 -8.12962,5.08147 -13.04519,13.92696 -4.72653,8.8455 -4.72653,20.13763 0,11.10393 4.91559,20.13763 4.91557,9.03371 13.04519,14.49156 8.12962,5.26966 17.96075,5.26966 6.42811,0 12.28894,-2.25842 6.04995,-2.25842 10.39844,-6.02247 4.53741,-3.95224 6.04985,-8.4691 l 12.6671,3.76404 q -2.64682,6.96349 -8.8858,12.60955 -6.04996,5.45786 -14.36867,8.6573 -8.12958,3.01123 -17.58267,3.01123 z m 102.6602,0 q -10.58747,0 -19.66231,-3.95224 -9.07493,-4.14045 -15.69207,-11.10393 -6.61715,-7.15168 -10.39834,-16.37358 -3.59217,-9.2219 -3.59217,-19.76123 0,-13.73875 6.23899,-25.21908 6.42811,-11.48033 17.58267,-18.25561 11.15456,-6.96348 25.3341,-6.96348 14.55769,0 25.3342,6.96348 10.96553,6.96348 17.20451,18.44381 6.23898,11.29213 6.23898,24.84268 0,1.50562 0,3.01124 0,1.31741 -0.18903,2.07022 h -84.3211 q 0.94525,10.53931 5.86092,18.82021 5.10461,8.09269 13.04516,12.98594 8.12958,4.70506 17.58268,4.70506 9.64212,0 18.14976,-4.89326 8.69687,-4.89325 12.09991,-12.79774 l 11.15466,3.01123 q -3.02498,6.96349 -9.26406,12.60955 -6.23899,5.64606 -14.74673,8.8455 -8.31861,3.01123 -17.96073,3.01123 z M 449.41566,555.5766 h 72.78849 q -0.75632,-10.72753 -5.86093,-18.82022 -4.91558,-8.09269 -13.04516,-12.60955 -7.94055,-4.70504 -17.58267,-4.70504 -9.64212,0 -17.58268,4.70504 -7.94055,4.51686 -13.04516,12.79775 -4.91557,8.09269 -5.67189,18.63202 z m 187.54829,53.6376 h -12.85612 v -54.76682 q 0,-17.3146 -5.10461,-25.21908 -5.10461,-8.09269 -16.07014,-8.09269 -7.56249,0 -14.93585,3.76404 -7.37337,3.57583 -13.04516,9.97471 -5.48277,6.21067 -7.94055,14.30336 v 60.03648 h -12.85613 v -98.05331 h 11.72175 v 22.20785 q 3.97022,-7.15168 10.39834,-12.42134 6.42801,-5.45786 14.55769,-8.4691 8.12959,-3.01123 16.82636,-3.01123 8.12968,0 13.80148,3.01123 5.67179,3.01124 9.07493,8.65731 3.40304,5.45785 4.91558,13.36235 1.51243,7.71628 1.51243,17.31459 z m 73.73394,-4.70505 q -1.51244,0.5646 -4.72645,2.07022 -3.2141,1.50562 -7.75152,2.63483 -4.53752,1.12922 -9.83115,1.12922 -5.48277,0 -10.39834,-2.07023 -4.72655,-2.07022 -7.5625,-6.21067 -2.83584,-4.32865 -2.83584,-10.53932 v -70.19939 h -13.61245 v -10.16292 h 13.61245 v -33.12357 h 12.85613 v 33.12357 h 22.68728 v 10.16292 h -22.68728 v 66.62355 q 0.37806,5.26966 3.78119,7.90449 3.59217,2.63482 8.12959,2.63482 5.29373,0 9.64212,-1.69381 4.34838,-1.88202 5.29373,-2.63483 z"
         id="text1"
         style="font-size:188.631px;font-family:Raleway;-inkscape-font-specification:Raleway;fill:#f9f9f9;stroke-width:0.982455"
         aria-label="Crescent" /></g><path
       sodipodi:type="star"
       style="display:inline;fill:#5d536c"
       id="First"
       inkscape:flatsided="false"
       sodipodi:sides="4"
       sodipodi:cx="388"
       sodipodi:cy="208"
       sodipodi:r1="90.199776"
       sodipodi:r2="21.647945"
       sodipodi:arg1="0"
       sodipodi:arg2="0.78539816"
       inkscape:rounded="0.05"
       inkscape:randomized="0"
       d="m 478.19978,208 c 0,3.82204 -72.18978,12.60482 -74.89237,15.30741 -2.70259,2.70259 -11.48537,74.89237 -15.30741,74.89237 -3.82204,0 -12.60482,-72.18978 -15.30741,-74.89237 C 369.99,220.60482 297.80022,211.82204 297.80022,208 c 0,-3.82204 72.18978,-12.60482 74.89237,-15.30741 2.70259,-2.70259 11.48537,-74.89237 15.30741,-74.89237 3.82204,0 12.60482,72.18978 15.30741,74.89237 2.70259,2.70259 74.89237,11.48537 74.89237,15.30741 z"
       transform="matrix(0.40969556,0,0,0.40969556,120.74921,268.01294)" /><path
       sodipodi:type="star"
       style="fill:#5d536c"
       id="Second"
       inkscape:flatsided="false"
       sodipodi:sides="4"
       sodipodi:cx="388"
       sodipodi:cy="208"
       sodipodi:r1="90.199776"
       sodipodi:r2="21.647945"
       sodipodi:arg1="0"
       sodipodi:arg2="0.78539816"
       inkscape:rounded="0.05"
       inkscape:randomized="0"
       d="m 478.19978,208 c 0,3.82204 -72.18978,12.60482 -74.89237,15.30741 -2.70259,2.70259 -11.48537,74.89237 -15.30741,74.89237 -3.82204,0 -12.60482,-72.18978 -15.30741,-74.89237 C 369.99,220.60482 297.80022,211.82204 297.80022,208 c 0,-3.82204 72.18978,-12.60482 74.89237,-15.30741 2.70259,-2.70259 11.48537,-74.89237 15.30741,-74.89237 3.82204,0 12.60482,72.18978 15.30741,74.89237 2.70259,2.70259 74.89237,11.48537 74.89237,15.30741 z"
       transform="matrix(0.33693475,0,0,0.33693475,220.0732,263.30762)" /><path
       sodipodi:type="star"
       style="fill:#5d536c"
       id="Third"
       inkscape:flatsided="false"
       sodipodi:sides="4"
       sodipodi:cx="388"
       sodipodi:cy="208"
       sodipodi:r1="90.199776"
       sodipodi:r2="21.647945"
       sodipodi:arg1="0"
       sodipodi:arg2="0.78539816"
       inkscape:rounded="0.05"
       inkscape:randomized="0"
       d="m 478.19978,208 c 0,3.82204 -72.18978,12.60482 -74.89237,15.30741 -2.70259,2.70259 -11.48537,74.89237 -15.30741,74.89237 -3.82204,0 -12.60482,-72.18978 -15.30741,-74.89237 C 369.99,220.60482 297.80022,211.82204 297.80022,208 c 0,-3.82204 72.18978,-12.60482 74.89237,-15.30741 2.70259,-2.70259 11.48537,-74.89237 15.30741,-74.89237 3.82204,0 12.60482,72.18978 15.30741,74.89237 2.70259,2.70259 74.89237,11.48537 74.89237,15.30741 z"
       transform="matrix(0.2581384,0,0,0.2581384,308.06857,262.58238)" /></g><g
     inkscape:groupmode="layer"
     id="layer4"
     inkscape:label="Crescent"
     style="display:inline"
     transform="translate(112.2449,-75.755936)"><path
       d="m 411.48633,378.42383 a 180,180 0 0 1 -20.71875,15.91211 180,180 0 0 1 -22.80469,12.74609 180,180 0 0 1 -24.41016,9.31055 180,180 0 0 1 -25.5,5.67969 A 180,180 0 0 1 292,424 180,180 0 0 1 266.38281,422.16797 180,180 0 0 1 241.28906,416.70898 180,180 0 0 1 217.22461,407.73437 180,180 0 0 1 194.68555,395.42578 180,180 0 0 1 174.125,380.03516 180,180 0 0 1 155.96484,361.875 180,180 0 0 1 140.57422,341.31445 180,180 0 0 1 128.26562,318.77539 180,180 0 0 1 119.29102,294.71094 180,180 0 0 1 113.83203,269.61719 180,180 0 0 1 112,244 a 180,180 0 0 1 1.89648,-25.89844 180,180 0 0 1 5.60352,-25.35547 180,180 0 0 1 9.19336,-24.28711 180,180 0 0 1 12.5918,-22.70898 180,180 0 0 1 15.72851,-20.66211 180,180 0 0 1 5.58399,-5.47656 180,180 0 0 0 -0.47266,0.35351 180,180 0 0 0 -18.16016,18.16016 180,180 0 0 0 -15.39062,20.56055 180,180 0 0 0 -12.30859,22.53906 180,180 0 0 0 -8.97461,24.06445 180,180 0 0 0 -5.45899,25.09375 A 180,180 0 0 0 100,256 a 180,180 0 0 0 1.83203,25.61719 180,180 0 0 0 5.45899,25.09375 180,180 0 0 0 8.97461,24.06445 180,180 0 0 0 12.30859,22.53906 180,180 0 0 0 15.39062,20.56055 180,180 0 0 0 18.16016,18.16016 180,180 0 0 0 20.56055,15.39062 180,180 0 0 0 22.53906,12.30859 180,180 0 0 0 24.06445,8.97461 180,180 0 0 0 25.09375,5.45899 A 180,180 0 0 0 280,436 a 180,180 0 0 0 25.61719,-1.83203 180,180 0 0 0 25.09375,-5.45899 180,180 0 0 0 24.06445,-8.97461 180,180 0 0 0 22.53906,-12.30859 180,180 0 0 0 20.56055,-15.39062 180,180 0 0 0 13.61133,-13.61133 z"
       style="fill:#8a6f91"
       id="Highlight" /><path
       d="m 411.48633,378.42383 a 180,180 0 0 1 -22.1836,11.85937 180,180 0 0 1 -23.61914,8.65039 180,180 0 0 1 -24.59375,5.27344 A 180,180 0 0 1 316,406 180,180 0 0 1 290.38281,404.16797 180,180 0 0 1 265.28906,398.70898 180,180 0 0 1 241.22461,389.73437 180,180 0 0 1 218.68555,377.42578 180,180 0 0 1 198.125,362.03516 180,180 0 0 1 179.96484,343.875 180,180 0 0 1 164.57422,323.31445 180,180 0 0 1 152.26562,300.77539 180,180 0 0 1 143.29102,276.71094 180,180 0 0 1 137.83203,251.61719 180,180 0 0 1 136,226 a 180,180 0 0 1 1.80469,-25.22852 180,180 0 0 1 5.32422,-24.72656 180,180 0 0 1 8.73632,-23.73633 180,180 0 0 1 11.97657,-22.27734 180,180 0 0 1 14.98242,-20.37695 180,180 0 0 1 6.24414,-6.38086 180,180 0 0 0 -2.38281,1.30078 180,180 0 0 0 -20.08789,15.03711 180,180 0 0 0 -5.58399,5.47656 A 180,180 0 0 0 141.28516,145.75 180,180 0 0 0 128.69336,168.45898 180,180 0 0 0 119.5,192.74609 180,180 0 0 0 113.89648,218.10156 180,180 0 0 0 112,244 a 180,180 0 0 0 1.83203,25.61719 180,180 0 0 0 5.45899,25.09375 180,180 0 0 0 8.9746,24.06445 180,180 0 0 0 12.3086,22.53906 180,180 0 0 0 15.39062,20.56055 180,180 0 0 0 18.16016,18.16016 180,180 0 0 0 20.56055,15.39062 180,180 0 0 0 22.53906,12.30859 180,180 0 0 0 24.06445,8.97461 180,180 0 0 0 25.09375,5.45899 A 180,180 0 0 0 292,424 a 180,180 0 0 0 26.05273,-1.92773 180,180 0 0 0 25.5,-5.67969 180,180 0 0 0 24.41016,-9.31055 180,180 0 0 0 22.80469,-12.74609 180,180 0 0 0 20.71875,-15.91211 z"
       style="fill:#5d536c"
       id="Moon" /></g></svg>
